# xmcd
#
# Track frame offsets:
#	150
#	130398
#	136600
#	180560
#	205329
#	213829
#	226959
#
# Disc length: 3148 seconds
#
# Revision: 1
# Processed by: cddbd v1.5.2PL0 Copyright (c) Steve Scherf et al.
# Submitted via: audiograbber 1.83.01
#
DISCID=5c0c4a07
DTITLE=Grateful Dead - 74-06-22 Jai-Alai Fronton, Miami FL
DYEAR=1900
DGENRE=
TTITLE0=Playing In The Band
TTITLE1=Tuning 2
TTITLE2=China Cat Sunflower
TTITLE3=I Know You Rider
TTITLE4=Tuning 2
TTITLE5=Me and My Uncle
TTITLE6=Tuning 2
EXTD=
EXTT0=
EXTT1=
EXTT2=
EXTT3=
EXTT4=
EXTT5=
EXTT6=
PLAYORDER=
